<svg width="512" height="512" xmlns="http://www.w3.org/2000/svg" xml:space="preserve" version="1.1">
 <!-- Se eliminó el círculo de fondo -->

 <!-- <circle style="fill:#FFD15D;" cx="256" cy="256" r="256"/> -->
 <!-- Se eliminó el path de fondo -->
 <!-- <path style="fill:#F9B54C;" d="M271.694,511.507c123.938-7.497,224.068-103.162,238.501-225.102L351.854,128.062l-12.657,4.834 ..."/> -->
 <g>
  <title>Layer 1</title>
  <path id="svg_1" fill="#734B46" d="m315.475,225.868c0,0 -57.165,80.079 0,210.472l-118.95,0c57.165,-130.393 0,-210.472 0,-210.472l23.387,0l17.008,48.94l6.378,-95.713l17.717,0l9.921,70.158l42.52,-46.771l2.019,23.386z"/>
  <path id="svg_2" fill="#5B3836" d="m315.475,218.868l-2.02,-23.385l-42.52,46.771l-9.921,-70.158l-5.587,0l0,257.243l60.049,0c-57.166,-130.394 -0.001,-210.471 -0.001,-210.471z"/>
  <path id="svg_3" fill="#e224e2" d="m198.973,154.215c0,-11.807 9.456,-21.378 21.118,-21.378c11.662,0 21.118,9.571 21.118,21.378c0,-11.807 9.456,-21.378 21.118,-21.378c11.662,0 21.118,9.571 21.118,21.378c0,20.442 -42.236,44.896 -42.236,44.896s-42.236,-23.3 -42.236,-44.896z"/>
  <g id="svg_4">
   <path id="svg_5" fill="#ff007f" d="m145.627,222.42c-7.697,-8.954 -6.766,-22.375 2.077,-29.979c8.844,-7.602 22.254,-6.508 29.951,2.446c-7.697,-8.954 -6.766,-22.375 2.077,-29.979c8.844,-7.602 22.254,-6.508 29.951,2.446c13.326,15.503 -2.762,61.578 -2.762,61.578s-47.217,9.863 -61.294,-6.512z"/>
   <path id="svg_6" fill="#ff007f" d="m280.007,112.287c5.575,-10.409 18.429,-14.383 28.71,-8.875c10.281,5.506 14.096,18.408 8.523,28.817c5.575,-10.409 18.429,-14.383 28.71,-8.875c10.281,5.506 14.096,18.408 8.523,28.817c-9.652,18.022 -58.428,19.635 -58.428,19.635s-26.233,-40.482 -16.038,-59.519z"/>
   <path id="svg_7" fill="#ff007f" d="m290.756,208.879c7.432,-9.173 20.806,-10.657 29.87,-3.315c9.064,7.342 10.388,20.73 2.955,29.903c7.432,-9.173 20.806,-10.657 29.87,-3.315c9.064,7.342 10.388,20.73 2.955,29.903c-12.869,15.882 -61.087,8.292 -61.087,8.292s-18.156,-44.691 -4.563,-61.468z"/>
  </g>
  <path id="svg_8" fill="#7f007f" d="m143.463,198.958c-2.131,-7.099 1.831,-14.558 8.849,-16.662c7.018,-2.103 14.433,1.946 16.563,9.045c-2.131,-7.099 1.831,-14.558 8.849,-16.662s14.433,1.946 16.563,9.045c3.687,12.29 -17.311,34.607 -17.311,34.607s-29.617,-6.391 -33.513,-19.373z"/>
  <path id="svg_9" fill="#ff007f" d="m147.854,129.436c-2.131,-7.099 1.831,-14.558 8.849,-16.662c7.018,-2.103 14.433,1.946 16.563,9.045c-2.131,-7.099 1.831,-14.558 8.849,-16.662c7.018,-2.103 14.433,1.946 16.563,9.045c3.687,12.29 -17.311,34.607 -17.311,34.607s-29.618,-6.39 -33.513,-19.373z"/>
  <g id="svg_10">
   <path id="svg_11" fill="#b218a8" d="m228.131,110.166c-2.131,-7.099 1.831,-14.558 8.849,-16.662c7.018,-2.103 14.433,1.946 16.563,9.045c-2.131,-7.099 1.831,-14.558 8.849,-16.662c7.018,-2.103 14.433,1.946 16.563,9.045c3.687,12.29 -17.311,34.607 -17.311,34.607s-29.617,-6.388 -33.513,-19.373z"/>
   <path id="svg_12" fill="#b218a8" d="m162.864,292.717c-6.87,-2.782 -10.206,-10.542 -7.452,-17.33c2.753,-6.789 10.554,-10.035 17.422,-7.252c-6.87,-2.782 -10.206,-10.542 -7.452,-17.33c2.753,-6.789 10.554,-10.035 17.422,-7.252c11.893,4.818 16.15,35.166 16.15,35.166s-23.526,19.087 -36.09,13.998z"/>
   <path id="svg_13" fill="#b218a8" d="m199.687,223.944c-2.131,-7.099 1.831,-14.558 8.849,-16.662c7.018,-2.103 14.433,1.946 16.563,9.045c-2.131,-7.099 1.831,-14.558 8.849,-16.662s14.433,1.946 16.563,9.045c3.687,12.29 -17.311,34.607 -17.311,34.607s-29.617,-6.389 -33.513,-19.373z"/>
   <path id="svg_14" fill="#b218a8" d="m357.981,169.91c5.665,-4.779 14.086,-4.11 18.806,1.491c4.722,5.601 3.956,14.015 -1.71,18.794c5.665,-4.779 14.086,-4.11 18.806,1.491c4.722,5.601 3.956,14.015 -1.71,18.794c-9.809,8.273 -38.64,-2.117 -38.64,-2.117s-5.914,-29.713 4.448,-38.453z"/>
  </g>
  <path id="svg_15" fill="#7f007f" d="m292.404,176.175c3.415,-6.577 11.452,-9.173 17.953,-5.798s9,11.443 5.587,18.02c3.415,-6.577 11.452,-9.173 17.953,-5.797c6.501,3.375 9.001,11.443 5.587,18.02c-5.913,11.388 -36.523,12.786 -36.523,12.786s-16.803,-25.204 -10.557,-37.231z"/>
 </g>
</svg>